<?xml version="1.0" standalone="no"?>
<!DOCTYPE svg PUBLIC "-//W3C//DTD SVG 20010904//EN"
 "http://www.w3.org/TR/2001/REC-SVG-20010904/DTD/svg10.dtd">
<svg version="1.0" xmlns="http://www.w3.org/2000/svg"
 width="1000.000000pt" height="1000.000000pt" viewBox="0 0 1000.000000 1000.000000"
 preserveAspectRatio="xMidYMid meet">
<metadata>
Created by potrace 1.11, written by Peter Selinger 2001-2013
</metadata>
<g transform="translate(0.000000,1000.000000) scale(0.100000,-0.100000)"
fill="#000000" stroke="none">
<path d="M670 9968 c-1 -18 -2 -2268 -3 -5001 l-2 -4967 1681 0 1681 0 -1
1415 c-1 778 1 1415 4 1415 5 0 141 -234 221 -379 14 -25 45 -80 69 -121 25
-41 51 -86 58 -100 6 -14 23 -43 37 -65 13 -22 29 -50 34 -62 6 -12 22 -41 37
-65 16 -24 38 -63 51 -88 13 -25 41 -74 63 -110 21 -36 48 -83 60 -105 11 -22
31 -58 45 -80 14 -22 30 -52 36 -68 6 -15 15 -27 20 -27 5 0 9 -5 9 -10 0 -6
32 -65 70 -131 39 -66 70 -124 70 -129 0 -4 3 -10 8 -12 4 -2 15 -19 24 -38
10 -19 28 -53 41 -75 22 -35 119 -206 168 -291 9 -17 23 -42 31 -55 7 -13 15
-26 18 -29 3 -3 12 -18 20 -35 8 -16 17 -32 20 -35 3 -3 21 -35 40 -72 19 -38
38 -68 43 -68 4 0 6 -3 5 -7 -1 -5 16 -39 38 -78 60 -101 89 -153 119 -210 15
-27 33 -57 41 -66 8 -9 11 -19 7 -22 -3 -4 -1 -7 5 -7 7 0 12 -4 12 -10 0 -5
18 -40 40 -77 22 -38 44 -75 49 -83 7 -13 248 -15 2054 -18 l2047 -2 -12 25
c-6 14 -15 25 -20 25 -4 0 -8 6 -8 13 0 7 -20 45 -44 85 -25 40 -42 72 -39 72
3 0 0 8 -9 18 -8 9 -25 38 -39 65 -13 26 -27 47 -31 47 -5 0 -8 4 -8 9 0 5
-22 48 -50 96 -27 48 -50 88 -50 91 0 2 -18 33 -40 69 -22 36 -40 67 -40 69 0
2 -18 34 -40 70 -22 36 -40 68 -40 71 0 3 -11 22 -23 43 -22 34 -38 62 -101
174 -12 20 -46 81 -77 135 -31 54 -66 114 -76 133 -11 19 -35 62 -53 95 -19
33 -37 62 -40 65 -3 3 -12 20 -19 38 -8 17 -17 32 -22 32 -5 0 -9 4 -9 10 0 5
-25 52 -55 105 -30 52 -55 98 -55 102 0 3 -6 14 -14 22 -7 9 -30 48 -51 86
-21 39 -49 87 -62 107 -12 21 -23 40 -23 43 0 3 -20 38 -44 78 -24 39 -55 93
-70 120 -60 108 -85 153 -214 377 -74 129 -145 253 -157 275 -12 22 -39 69
-60 105 -21 36 -50 86 -64 112 -24 42 -105 184 -188 328 -18 30 -40 71 -50 90
-10 19 -21 37 -25 38 -5 2 -8 7 -8 12 0 4 -32 64 -71 132 -39 67 -83 143 -97
168 -14 25 -36 63 -48 85 -26 44 -64 117 -64 122 0 1 170 3 378 3 368 1 425 2
488 14 17 3 47 8 67 10 150 20 340 114 456 228 58 57 134 166 166 238 11 25
24 48 30 52 5 4 7 8 3 8 -4 0 0 17 9 38 9 20 24 71 35 112 20 78 20 81 33 170
4 30 10 64 13 75 9 34 10 3914 1 4005 -10 99 -15 134 -27 175 -4 17 -8 37 -7
45 1 8 -2 20 -6 25 -3 6 -14 37 -24 69 -93 326 -364 564 -730 641 -40 9 -71
15 -110 22 -22 4 -1726 9 -3787 10 l-3748 3 0 -32z m6811 -322 c90 -13 201
-46 277 -83 108 -53 225 -169 274 -273 35 -73 49 -104 53 -125 2 -5 7 -28 13
-50 14 -52 20 -86 28 -160 9 -77 9 -3779 0 -3865 -7 -74 -21 -160 -26 -167 -2
-2 -4 -12 -5 -23 -1 -11 -4 -22 -5 -25 -1 -3 -3 -8 -5 -12 -14 -54 -23 -77
-56 -144 -28 -57 -58 -98 -107 -146 -60 -60 -153 -122 -174 -115 -5 1 -8 -2
-8 -6 0 -5 -6 -9 -12 -9 -7 -1 -34 -8 -60 -16 -54 -17 -102 -18 -728 -20 -256
-1 -471 -6 -477 -10 -7 -5 -13 -4 -13 1 0 10 -30 9 -48 -2 -6 -4 -12 -3 -12 2
0 10 -30 9 -48 -2 -6 -4 -12 -3 -12 1 0 5 -9 9 -20 9 -11 0 -20 -4 -20 -9 0
-4 -5 -5 -12 -1 -35 22 -95 5 -70 -20 4 -4 7 -11 7 -14 0 -4 8 -18 17 -32 9
-14 35 -59 58 -100 23 -41 51 -90 61 -108 51 -87 64 -110 83 -147 12 -22 23
-42 26 -45 7 -7 30 -48 49 -85 8 -16 17 -32 20 -35 3 -3 14 -21 25 -40 10 -19
28 -51 39 -70 11 -19 33 -60 50 -90 16 -30 36 -62 43 -71 8 -8 14 -18 14 -21
0 -3 16 -35 36 -70 20 -34 50 -88 67 -118 16 -30 37 -63 45 -72 8 -10 11 -18
7 -18 -4 0 -1 -8 7 -17 21 -25 108 -180 108 -193 0 -5 4 -10 8 -10 5 0 14 -16
22 -35 8 -19 17 -35 21 -35 4 0 9 -8 12 -17 4 -10 18 -38 33 -63 14 -25 36
-63 48 -85 11 -22 27 -46 33 -53 7 -7 16 -24 19 -38 3 -13 10 -24 14 -24 4 0
10 -8 13 -17 3 -10 19 -40 36 -68 16 -27 42 -74 57 -102 16 -29 32 -53 37 -53
4 0 6 -4 2 -9 -3 -5 0 -15 7 -23 7 -7 24 -33 37 -58 14 -25 28 -47 32 -50 4
-3 9 -12 11 -20 2 -8 20 -41 41 -74 20 -32 37 -65 37 -73 0 -7 5 -13 10 -13 6
0 10 -4 10 -8 0 -13 122 -226 134 -234 7 -5 7 -8 1 -8 -7 0 -7 -3 0 -8 6 -4
18 -23 29 -42 35 -67 79 -145 86 -155 4 -5 17 -27 29 -47 12 -21 29 -53 39
-70 11 -18 43 -76 72 -128 30 -52 57 -96 62 -98 4 -2 8 -8 8 -14 0 -5 15 -36
34 -68 19 -32 32 -61 29 -64 -4 -3 -1 -6 5 -6 7 0 18 -15 27 -32 8 -18 26 -53
41 -78 49 -82 85 -145 97 -170 6 -14 14 -27 17 -30 3 -3 17 -26 30 -52 14 -27
28 -48 32 -48 5 0 8 -5 8 -11 0 -6 15 -37 34 -69 19 -32 32 -61 29 -64 -4 -3
-2 -6 4 -6 6 0 21 -21 35 -47 47 -89 63 -118 68 -123 14 -13 50 -82 46 -89 -5
-8 -2001 -9 -2009 -1 -3 3 -18 30 -35 60 -16 30 -81 145 -144 255 -63 110
-126 220 -140 245 -14 25 -42 74 -63 110 -81 140 -351 613 -383 670 -14 25
-36 62 -49 82 -12 21 -23 39 -23 41 0 3 -60 109 -167 292 -12 22 -26 47 -30
55 -5 8 -64 113 -133 233 -69 120 -136 237 -149 260 -13 23 -93 162 -177 310
-85 147 -154 269 -154 272 0 2 -11 20 -25 40 -13 21 -32 54 -42 76 -9 21 -20
39 -25 39 -4 0 -8 4 -8 10 0 5 -14 33 -31 62 -18 29 -42 71 -54 93 -12 22 -84
148 -160 280 -76 132 -148 258 -160 280 -12 22 -65 114 -117 205 -53 91 -106
183 -118 205 -12 22 -45 79 -73 128 l-51 87 -154 0 c-142 0 -154 -1 -148 -17
6 -17 5 -17 -8 0 -11 15 -32 17 -165 17 -99 0 -150 -4 -146 -10 3 -6 2 -10 -4
-10 -5 0 -13 4 -16 10 -4 6 -66 10 -155 10 l-148 0 2 -85 c2 -47 -1 -88 -6
-91 -5 -3 -5 -11 0 -17 10 -14 10 -497 -1 -514 -4 -6 -4 -14 1 -17 10 -6 9
-76 -1 -93 -4 -6 -4 -14 1 -17 10 -6 9 -497 -1 -513 -4 -6 -4 -14 1 -17 10 -6
9 -76 -1 -93 -4 -6 -4 -14 1 -17 9 -6 9 -502 0 -512 -4 -4 -4 -12 -1 -18 10
-16 10 -86 1 -92 -5 -3 -5 -11 -1 -17 12 -18 10 -411 -2 -419 -7 -5 -7 -8 0
-8 12 0 14 -394 3 -406 -4 -4 -4 -12 -1 -18 10 -16 10 -86 1 -92 -5 -3 -5 -11
-1 -17 12 -19 10 -417 -2 -417 -6 0 -6 -3 0 -8 14 -10 14 -352 0 -352 -6 0 -6
-3 0 -8 14 -10 14 -304 0 -314 -7 -5 -7 -8 0 -8 7 0 10 -40 10 -107 l-1 -108
-695 0 -694 0 -2 4657 c-1 4253 0 4657 15 4660 32 6 5769 1 5813 -6z"/>
</g>
</svg>
